<svg width="16" height="7" viewBox="0 0 16 7" fill="none" xmlns="http://www.w3.org/2000/svg">
<path d="M15.3856 3.39164L0.493284 3.39164C0.220977 3.39164 0.000976712 3.59981 0.000976701 3.85747C0.00097669 4.11513 0.220977 4.3233 0.493284 4.3233L14.1964 4.3233L12.2087 6.20409C12.0164 6.38605 12.0164 6.68156 12.2087 6.86353C12.401 7.04549 12.7133 7.04549 12.9056 6.86353L15.7348 4.18646C15.8764 4.05254 15.9179 3.8531 15.841 3.67842C15.7641 3.50519 15.5841 3.39164 15.3856 3.39164Z" fill="#B7BDC1"/>
<path d="M12.5515 0.710278C12.4253 0.710278 12.2992 0.755406 12.2038 0.847116C12.0115 1.02908 12.0115 1.32459 12.2038 1.50656L15.0376 4.18799C15.23 4.36996 15.5423 4.36996 15.7346 4.18799C15.9269 4.00603 15.9269 3.71051 15.7346 3.52855L12.9007 0.847116C12.8038 0.755406 12.6776 0.710278 12.5515 0.710278Z" fill="#B7BDC1"/>
</svg>
