<svg width="24" height="24" viewBox="0 0 24 24" fill="none" xmlns="http://www.w3.org/2000/svg">
<path d="M1.25 15L1.25 9C1.25 3.57 3.57 1.25 9 1.25L15 1.25C20.43 1.25 22.75 3.57 22.75 9L22.75 15C22.75 20.43 20.43 22.75 15 22.75L9 22.75C3.57 22.75 1.25 20.43 1.25 15ZM21.25 9C21.25 4.39 19.61 2.75 15 2.75L9 2.75C4.39 2.75 2.75 4.39 2.75 9L2.75 15C2.75 19.61 4.39 21.25 9 21.25L15 21.25C19.61 21.25 21.25 19.61 21.25 15L21.25 9Z" fill="#131B22"/>
<path d="M7.71984 13.2599C7.71984 13.0699 7.78984 12.8799 7.93984 12.7299L11.4698 9.19992C11.7598 8.90992 12.2398 8.90992 12.5298 9.19992L16.0598 12.7299C16.3498 13.0199 16.3498 13.4999 16.0598 13.7899C15.7698 14.0799 15.2898 14.0799 14.9998 13.7899L11.9998 10.7899L8.99984 13.7899C8.70984 14.0799 8.22984 14.0799 7.93984 13.7899C7.78984 13.6499 7.71984 13.4599 7.71984 13.2599Z" fill="#131B22"/>
</svg>
