<svg width="15" height="15" viewBox="0 0 15 15" fill="none" xmlns="http://www.w3.org/2000/svg">
<path d="M5.625 0.781249L9.375 0.78125C12.7688 0.78125 14.2188 2.23125 14.2188 5.625L14.2188 9.375C14.2188 12.7687 12.7687 14.2187 9.375 14.2187L5.625 14.2187C2.23125 14.2187 0.78125 12.7687 0.78125 9.375L0.781251 5.625C0.781251 2.23125 2.23125 0.781249 5.625 0.781249ZM9.375 13.2812C12.2563 13.2812 13.2813 12.2563 13.2813 9.375L13.2813 5.625C13.2813 2.74375 12.2563 1.71875 9.375 1.71875L5.625 1.71875C2.74375 1.71875 1.71875 2.74375 1.71875 5.625L1.71875 9.375C1.71875 12.2562 2.74375 13.2812 5.625 13.2812L9.375 13.2812Z" fill="#757575"/>
<path d="M8.2877 4.8249C8.40645 4.8249 8.5252 4.86865 8.61895 4.9624C8.8002 5.14365 8.8002 5.44365 8.61895 5.6249L6.74395 7.4999L8.61895 9.3749C8.8002 9.55615 8.8002 9.85615 8.61895 10.0374C8.4377 10.2187 8.1377 10.2187 7.95645 10.0374L5.7502 7.83115C5.56895 7.6499 5.56895 7.3499 5.7502 7.16865L7.95645 4.9624C8.0502 4.86865 8.16895 4.8249 8.2877 4.8249Z" fill="#757575"/>
</svg>
