<svg width="86" height="21" viewBox="0 0 86 21" fill="none" xmlns="http://www.w3.org/2000/svg">
<path d="M51.211 20.9025C53.9828 20.9025 56.6411 19.8013 58.6011 17.8414C60.5611 15.8814 61.6622 13.2231 61.6622 10.4512C61.6622 9.89686 61.442 9.3652 61.05 8.9732C60.658 8.5812 60.1263 8.36098 59.572 8.36098H51.211C50.6566 8.36098 50.125 8.5812 49.733 8.9732C49.341 9.3652 49.1207 9.89686 49.1207 10.4512C49.1207 11.0056 49.341 11.5373 49.733 11.9293C50.125 12.3213 50.6566 12.5415 51.211 12.5415H57.1264C56.7432 13.6252 56.0695 14.5828 55.179 15.3096C54.2884 16.0363 53.2152 16.5043 52.0766 16.6624C50.938 16.8205 49.7779 16.6625 48.723 16.2059C47.6682 15.7492 46.7591 15.0114 46.0952 14.073C45.4313 13.1346 45.0381 12.0318 44.9586 10.8851C44.879 9.73832 45.1163 8.59179 45.6443 7.57075C46.1723 6.54971 46.9708 5.69346 47.9526 5.09555C48.9343 4.49765 50.0615 4.18109 51.211 4.18049C52.1483 4.17833 53.0739 4.38918 53.9179 4.79711C54.167 4.94491 54.4442 5.0393 54.7317 5.07431C55.0193 5.10931 55.311 5.08415 55.5883 5.00044C55.8657 4.91672 56.1226 4.77627 56.3427 4.588C56.5629 4.39973 56.7415 4.16776 56.8673 3.90679C56.9931 3.64582 57.0632 3.36156 57.0733 3.07204C57.0833 2.78253 57.0331 2.49408 56.9258 2.225C56.8185 1.95592 56.6564 1.7121 56.4498 1.50898C56.2433 1.30587 55.9968 1.14791 55.7259 1.04512C54.3193 0.359853 52.7756 0.00251654 51.211 0C48.4392 0 45.7808 1.10111 43.8209 3.06109C41.8609 5.02108 40.7598 7.67939 40.7598 10.4512C40.7598 13.2231 41.8609 15.8814 43.8209 17.8414C45.7808 19.8013 48.4392 20.9025 51.211 20.9025Z" fill="white"/>
<path d="M14.6317 16.722H4.18049V2.09025C4.18049 1.53588 3.96027 1.00421 3.56827 0.612217C3.17627 0.22022 2.64461 0 2.09025 0C1.53588 0 1.00422 0.22022 0.612219 0.612217C0.220222 1.00421 0 1.53588 0 2.09025V18.8122C0 19.3666 0.220222 19.8982 0.612219 20.2902C1.00422 20.6822 1.53588 20.9025 2.09025 20.9025H14.6317C15.1861 20.9025 15.7177 20.6822 16.1097 20.2902C16.5017 19.8982 16.722 19.3666 16.722 18.8122C16.722 18.2578 16.5017 17.7262 16.1097 17.3342C15.7177 16.9422 15.1861 16.722 14.6317 16.722Z" fill="white"/>
<path d="M27.1729 0C25.1059 0 23.0852 0.612953 21.3665 1.76135C19.6478 2.90974 18.3083 4.542 17.5172 6.45171C16.7262 8.36143 16.5192 10.4628 16.9225 12.4902C17.3258 14.5175 18.3211 16.3797 19.7828 17.8414C21.2444 19.303 23.1066 20.2984 25.134 20.7016C27.1613 21.1049 29.2627 20.8979 31.1724 20.1069C33.0821 19.3159 34.7144 17.9763 35.8628 16.2576C37.0112 14.5389 37.6241 12.5183 37.6241 10.4512C37.6241 7.67939 36.523 5.02108 34.563 3.06109C32.6031 1.10111 29.9447 0 27.1729 0ZM27.1729 16.722C25.9327 16.722 24.7203 16.3542 23.6891 15.6651C22.6579 14.9761 21.8541 13.9968 21.3795 12.8509C20.9049 11.7051 20.7807 10.4443 21.0227 9.22787C21.2646 8.01147 21.8619 6.89413 22.7388 6.01715C23.6158 5.14017 24.7331 4.54294 25.9496 4.30098C27.166 4.05902 28.4268 4.18321 29.5726 4.65783C30.7184 5.13244 31.6978 5.93618 32.3868 6.96739C33.0759 7.99861 33.4436 9.21099 33.4436 10.4512C33.4436 12.1143 32.783 13.7093 31.607 14.8853C30.431 16.0613 28.836 16.722 27.1729 16.722Z" fill="#6542F5"/>
<path d="M75.2491 20.9025C77.3161 20.9025 79.3368 20.2895 81.0555 19.1411C82.7742 17.9927 84.1137 16.3605 84.9047 14.4507C85.6958 12.541 85.9028 10.4396 85.4995 8.4123C85.0962 6.38496 84.1008 4.52273 82.6392 3.0611C81.1776 1.59947 79.3154 0.604084 77.288 0.200821C75.2607 -0.202442 73.1593 0.00453128 71.2496 0.79556C69.3399 1.58659 67.7076 2.92615 66.5592 4.64484C65.4108 6.36354 64.7979 8.38417 64.7979 10.4512C64.7979 13.2231 65.899 15.8814 67.8589 17.8414C69.8189 19.8013 72.4772 20.9025 75.2491 20.9025ZM75.2491 4.18049C76.4893 4.18049 77.7017 4.54827 78.7329 5.23731C79.7641 5.92634 80.5679 6.9057 81.0425 8.05153C81.5171 9.19736 81.6413 10.4582 81.3993 11.6746C81.1574 12.891 80.5601 14.0083 79.6832 14.8853C78.8062 15.7623 77.6888 16.3595 76.4724 16.6015C75.256 16.8434 73.9952 16.7192 72.8494 16.2446C71.7035 15.77 70.7242 14.9663 70.0352 13.9351C69.3461 12.9038 68.9783 11.6915 68.9783 10.4512C68.9783 8.78813 69.639 7.19315 70.815 6.01715C71.991 4.84116 73.586 4.18049 75.2491 4.18049Z" fill="white"/>
</svg>
