<svg width="20" height="20" viewBox="0 0 20 20" fill="none" xmlns="http://www.w3.org/2000/svg">
<path d="M14.9999 6.59197C14.9749 6.59197 14.9583 6.59197 14.9333 6.59197H14.8916C13.3166 6.54197 12.1416 5.32529 12.1416 3.82529C12.1416 2.29196 13.3916 1.05029 14.9166 1.05029C16.4416 1.05029 17.6916 2.30029 17.6916 3.82529C17.6833 5.33363 16.5083 6.5503 15.0083 6.6003C15.0083 6.59196 15.0083 6.59197 14.9999 6.59197ZM14.9166 2.29196C14.0749 2.29196 13.3916 2.9753 13.3916 3.81697C13.3916 4.64197 14.0333 5.30863 14.8583 5.34197C14.8666 5.33363 14.9333 5.33363 15.0083 5.34197C15.8166 5.3003 16.4416 4.63363 16.4499 3.81697C16.4499 2.9753 15.7666 2.29196 14.9166 2.29196Z" fill="white"/>
<path d="M15.0087 12.7336C14.6837 12.7336 14.3587 12.7086 14.0337 12.6503C13.6921 12.5919 13.4671 12.267 13.5254 11.9253C13.5837 11.5836 13.9087 11.3586 14.2504 11.417C15.2754 11.592 16.3587 11.4003 17.0837 10.917C17.4754 10.6586 17.6837 10.3336 17.6837 10.0086C17.6837 9.68362 17.4671 9.36695 17.0837 9.10862C16.3587 8.62528 15.2587 8.43362 14.2254 8.61695C13.8837 8.68362 13.5587 8.45028 13.5004 8.10862C13.4421 7.76695 13.6671 7.44196 14.0087 7.38362C15.3671 7.14196 16.7754 7.40028 17.7754 8.06695C18.5087 8.55861 18.9337 9.25862 18.9337 10.0086C18.9337 10.7503 18.5171 11.4586 17.7754 11.9586C17.0171 12.4586 16.0337 12.7336 15.0087 12.7336Z" fill="white"/>
<path d="M4.97539 6.592C4.96706 6.592 4.95873 6.592 4.95873 6.592C3.45873 6.542 2.28372 5.32532 2.27539 3.82532C2.27539 2.29199 3.52539 1.04199 5.05039 1.04199C6.57539 1.04199 7.82539 2.29199 7.82539 3.81699C7.82539 5.32533 6.65039 6.542 5.15039 6.592L4.97539 5.967L5.03373 6.592C5.01706 6.592 4.99206 6.592 4.97539 6.592ZM5.05872 5.342C5.10872 5.342 5.15039 5.34199 5.20039 5.35032C5.94206 5.31699 6.59206 4.65032 6.59206 3.82532C6.59206 2.98366 5.90873 2.30032 5.06706 2.30032C4.22539 2.30032 3.54206 2.98366 3.54206 3.82532C3.54206 4.64199 4.17539 5.30032 4.98372 5.35032C4.99206 5.34199 5.02539 5.342 5.05872 5.342Z" fill="white"/>
<path d="M4.96699 12.7336C3.94199 12.7336 2.95866 12.4586 2.20033 11.9586C1.46699 11.467 1.04199 10.7586 1.04199 10.0086C1.04199 9.26695 1.46699 8.55861 2.20033 8.06695C3.20033 7.40028 4.60866 7.14196 5.96699 7.38362C6.30866 7.44196 6.53366 7.76695 6.47533 8.10862C6.41699 8.45028 6.09199 8.68362 5.75033 8.61695C4.71699 8.43362 3.62533 8.62528 2.89199 9.10862C2.50033 9.36695 2.29199 9.68362 2.29199 10.0086C2.29199 10.3336 2.50866 10.6586 2.89199 10.917C3.61699 11.4003 4.70032 11.592 5.72532 11.417C6.06699 11.3586 6.39199 11.592 6.45033 11.9253C6.50866 12.267 6.28366 12.5919 5.94199 12.6503C5.61699 12.7086 5.29199 12.7336 4.96699 12.7336Z" fill="white"/>
<path d="M9.99994 12.8168C9.97494 12.8168 9.95827 12.8168 9.93327 12.8168H9.8916C8.3166 12.7668 7.1416 11.5501 7.1416 10.0501C7.1416 8.51681 8.3916 7.27515 9.9166 7.27515C11.4416 7.27515 12.6916 8.52515 12.6916 10.0501C12.6833 11.5585 11.5083 12.7751 10.0083 12.8251C10.0083 12.8168 10.0083 12.8168 9.99994 12.8168ZM9.9166 8.51682C9.07494 8.51682 8.3916 9.20015 8.3916 10.0418C8.3916 10.8668 9.03327 11.5335 9.85827 11.5668C9.8666 11.5585 9.93327 11.5585 10.0083 11.5668C10.8166 11.5252 11.4416 10.8585 11.4499 10.0418C11.4499 9.20849 10.7666 8.51682 9.9166 8.51682Z" fill="white"/>
<path d="M9.99974 18.9668C8.99974 18.9668 7.99974 18.7085 7.22474 18.1835C6.49141 17.6919 6.06641 16.9919 6.06641 16.2419C6.06641 15.5002 6.48307 14.7835 7.22474 14.2918C8.78307 13.2585 11.2247 13.2585 12.7747 14.2918C13.5081 14.7835 13.9331 15.4835 13.9331 16.2335C13.9331 16.9752 13.5164 17.6919 12.7747 18.1835C11.9997 18.7002 10.9997 18.9668 9.99974 18.9668ZM7.91641 15.3419C7.52474 15.6002 7.31641 15.9252 7.31641 16.2502C7.31641 16.5752 7.53307 16.8919 7.91641 17.1502C9.04141 17.9085 10.9497 17.9085 12.0747 17.1502C12.4664 16.8919 12.6747 16.5669 12.6747 16.2419C12.6747 15.9169 12.4581 15.6002 12.0747 15.3419C10.9581 14.5835 9.04974 14.5919 7.91641 15.3419Z" fill="white"/>
</svg>
