<svg width="20" height="20" viewBox="0 0 20 20" fill="none" xmlns="http://www.w3.org/2000/svg">
<path fill-rule="evenodd" clip-rule="evenodd" d="M10.0059 1.66699C11.3541 1.66699 12.697 1.99955 13.8903 2.62869C17.953 4.77231 19.5154 9.82157 17.3733 13.8856C15.9121 16.6569 13.0354 18.3337 9.99641 18.3337C9.40271 18.3337 8.80314 18.2698 8.2065 18.1377C7.87039 18.0628 7.6583 17.7295 7.73242 17.3933C7.80654 17.057 8.13898 16.8463 8.4773 16.919C11.5808 17.6091 14.7849 16.1196 16.2695 13.3035C18.091 9.84873 16.7627 5.55488 13.3084 3.7328C12.2941 3.19763 11.1522 2.91499 10.0052 2.91499H9.99714C6.09223 2.91499 2.91457 6.09299 2.91457 9.99922C2.91311 11.1371 3.19051 12.2698 3.71669 13.2763L3.87668 13.5891C4.07262 13.9561 4.11592 14.412 3.98896 14.8246C3.81356 15.2871 3.66752 15.7371 3.54717 16.1849C4.01538 16.0439 4.58706 15.8362 5.00023 15.6857L5.16975 15.6248C5.49045 15.5051 5.85078 15.6747 5.9682 15.9992C6.08562 16.3229 5.91756 16.6812 5.59393 16.7979L5.42661 16.8588L5.39813 16.8691C4.78292 17.0921 3.95455 17.3923 3.39232 17.5181C3.34389 17.5283 3.29178 17.5349 3.24408 17.5335C2.861 17.5335 2.62763 17.3786 2.4992 17.2479C2.30179 17.0475 2.20786 16.7663 2.21887 16.4125C2.22033 16.3721 2.22547 16.3303 2.23501 16.2899C2.38325 15.6585 2.57626 15.0287 2.80963 14.4186C2.82651 14.3591 2.81624 14.2512 2.76853 14.1609L2.60782 13.8489C1.9921 12.6699 1.66553 11.3361 1.667 9.99849C1.667 5.40438 5.40386 1.66699 9.99641 1.66699H10.0059ZM5.33656 9.99959C5.33656 9.45267 5.78055 9.00853 6.32728 9.00853C6.87401 9.00853 7.318 9.45267 7.318 9.99959C7.318 10.5458 6.87401 10.9899 6.32728 10.9899C5.78055 10.9899 5.33656 10.5458 5.33656 9.99959ZM10.9874 9.9993C10.9874 9.45311 10.5434 9.00824 9.9967 9.00824C9.44997 9.00824 9.00598 9.45311 9.00598 9.9993C9.00598 10.5455 9.44997 10.9904 9.9967 10.9904C10.5434 10.9904 10.9874 10.5455 10.9874 9.9993ZM13.666 9.00824C14.2128 9.00824 14.6568 9.45311 14.6568 9.9993C14.6568 10.5455 14.2128 10.9904 13.666 10.9904C13.1193 10.9904 12.6753 10.5455 12.6753 9.9993C12.6753 9.45311 13.1193 9.00824 13.666 9.00824Z" fill="white"/>
</svg>
