<svg width="20" height="20" viewBox="0 0 20 20" fill="none" xmlns="http://www.w3.org/2000/svg">
<path d="M14.167 17.7087H5.83366C2.79199 17.7087 1.04199 15.9587 1.04199 12.917V7.08366C1.04199 4.04199 2.79199 2.29199 5.83366 2.29199H14.167C17.2087 2.29199 18.9587 4.04199 18.9587 7.08366V12.917C18.9587 15.9587 17.2087 17.7087 14.167 17.7087ZM5.83366 3.54199C3.45033 3.54199 2.29199 4.70033 2.29199 7.08366V12.917C2.29199 15.3003 3.45033 16.4587 5.83366 16.4587H14.167C16.5503 16.4587 17.7087 15.3003 17.7087 12.917V7.08366C17.7087 4.70033 16.5503 3.54199 14.167 3.54199H5.83366Z" fill="white"/>
<path d="M10 13.1252C8.275 13.1252 6.875 11.7252 6.875 10.0002C6.875 8.27524 8.275 6.87524 10 6.87524C11.725 6.87524 13.125 8.27524 13.125 10.0002C13.125 11.7252 11.725 13.1252 10 13.1252ZM10 8.12524C8.96667 8.12524 8.125 8.96691 8.125 10.0002C8.125 11.0336 8.96667 11.8752 10 11.8752C11.0333 11.8752 11.875 11.0336 11.875 10.0002C11.875 8.96691 11.0333 8.12524 10 8.12524Z" fill="white"/>
<path d="M4.58301 12.7087C4.24134 12.7087 3.95801 12.4253 3.95801 12.0837V7.91699C3.95801 7.57533 4.24134 7.29199 4.58301 7.29199C4.92467 7.29199 5.20801 7.57533 5.20801 7.91699V12.0837C5.20801 12.4253 4.92467 12.7087 4.58301 12.7087Z" fill="white"/>
<path d="M15.417 12.7087C15.0753 12.7087 14.792 12.4253 14.792 12.0837V7.91699C14.792 7.57533 15.0753 7.29199 15.417 7.29199C15.7587 7.29199 16.042 7.57533 16.042 7.91699V12.0837C16.042 12.4253 15.7587 12.7087 15.417 12.7087Z" fill="white"/>
</svg>
