<svg width="20" height="20" viewBox="0 0 20 20" fill="none" xmlns="http://www.w3.org/2000/svg">
<path fill-rule="evenodd" clip-rule="evenodd" d="M1.66699 10.0001C1.66699 5.40425 5.40533 1.66675 10.0003 1.66675C14.5953 1.66675 18.3337 5.40425 18.3337 10.0001C18.3337 14.5951 14.5953 18.3334 10.0003 18.3334C7.39449 18.3334 4.98616 17.1476 3.39449 15.0817C3.19033 14.8159 3.23949 14.4351 3.50533 14.2317C3.76949 14.0267 4.14949 14.0776 4.35449 14.3417C5.71533 16.1084 7.77283 17.1217 10.0003 17.1217C13.927 17.1217 17.122 13.9276 17.122 10.0001C17.122 6.07341 13.927 2.87841 10.0003 2.87841C6.07366 2.87841 2.87866 6.07341 2.87866 10.0001C2.87866 10.3651 2.90616 10.7276 2.96033 11.0826C3.01033 11.4126 2.78366 11.7217 2.45283 11.7726C2.12033 11.8276 1.81283 11.5967 1.76283 11.2659C1.69949 10.8509 1.66699 10.4251 1.66699 10.0001ZM10.0003 6.21183C9.65533 6.21183 9.37533 6.49183 9.37533 6.83683V10.5202C9.37533 10.8652 9.65533 11.1452 10.0003 11.1452C10.3453 11.1452 10.6253 10.8652 10.6253 10.5202V6.83683C10.6253 6.49183 10.3453 6.21183 10.0003 6.21183ZM10.0088 12.5383H10.0005C9.65549 12.5383 9.37966 12.8183 9.37966 13.1633C9.37966 13.5083 9.66383 13.7883 10.0088 13.7883C10.3538 13.7883 10.6338 13.5083 10.6338 13.1633C10.6338 12.8183 10.3538 12.5383 10.0088 12.5383Z" fill="white"/>
</svg>
