<svg width="20" height="20" viewBox="0 0 20 20" fill="none" xmlns="http://www.w3.org/2000/svg">
<path d="M10 8.76694C9.65833 8.76694 9.375 8.48361 9.375 8.14194V5.36694C9.375 5.02528 9.65833 4.74194 10 4.74194C10.3417 4.74194 10.625 5.02528 10.625 5.36694V8.14194C10.625 8.49194 10.3417 8.76694 10 8.76694Z" fill="#181818"/>
<path d="M10.0167 16.9587C7.86672 16.9587 5.72505 16.617 3.68339 15.9337C2.92505 15.6837 2.35005 15.142 2.10005 14.4587C1.85005 13.7754 1.93339 12.992 2.34172 12.3087L3.40005 10.542C3.63339 10.1504 3.84172 9.41703 3.84172 8.95869V7.20869C3.84172 3.80036 6.60839 1.03369 10.0167 1.03369C13.4251 1.03369 16.1917 3.80036 16.1917 7.20869V8.95869C16.1917 9.40869 16.4001 10.1504 16.6334 10.542L17.6917 12.3087C18.0834 12.9587 18.1501 13.7337 17.8917 14.442C17.6334 15.1504 17.0667 15.692 16.3501 15.9337C14.3084 16.6254 12.1667 16.9587 10.0167 16.9587ZM10.0167 2.29202C7.30005 2.29202 5.09172 4.50036 5.09172 7.21703V8.96703C5.09172 9.64203 4.82505 10.617 4.47505 11.192L3.41672 12.967C3.20005 13.3254 3.15005 13.7087 3.27505 14.042C3.40005 14.3754 3.68339 14.6254 4.08339 14.7587C7.91672 16.0337 12.1334 16.0337 15.9667 14.7587C16.3251 14.642 16.6001 14.3754 16.7251 14.0254C16.8584 13.6754 16.8167 13.292 16.6251 12.967L15.5667 11.2004C15.2167 10.6254 14.9501 9.65036 14.9501 8.97536V7.22536C14.9417 4.50036 12.7334 2.29202 10.0167 2.29202Z" fill="#181818"/>
<path d="M9.99961 19.0836C9.10794 19.0836 8.23294 18.7169 7.59961 18.0836C6.96628 17.4503 6.59961 16.5753 6.59961 15.6836H7.84961C7.84961 16.2503 8.08294 16.8003 8.48294 17.2003C8.88294 17.6003 9.43294 17.8336 9.99961 17.8336C11.1829 17.8336 12.1496 16.8669 12.1496 15.6836H13.3996C13.3996 17.5586 11.8746 19.0836 9.99961 19.0836Z" fill="#181818"/>
</svg>
