<svg width="20" height="20" viewBox="0 0 20 20" fill="none" xmlns="http://www.w3.org/2000/svg">
<path d="M15.1582 14.7917H6.28317C5.45817 14.7917 4.6665 14.4418 4.10816 13.8334C3.54983 13.2251 3.2665 12.4084 3.33317 11.5834L4.02484 3.28342C4.04984 3.02508 3.95817 2.77509 3.78317 2.58342C3.60817 2.39175 3.3665 2.29175 3.10817 2.29175H1.6665C1.32484 2.29175 1.0415 2.00841 1.0415 1.66675C1.0415 1.32508 1.32484 1.04175 1.6665 1.04175H3.11651C3.72484 1.04175 4.29983 1.30008 4.70817 1.74174C4.93317 1.99174 5.09983 2.28342 5.1915 2.60842H15.5998C16.4415 2.60842 17.2165 2.94175 17.7832 3.54175C18.3415 4.15008 18.6248 4.94175 18.5582 5.78342L18.1082 12.0334C18.0165 13.5584 16.6832 14.7917 15.1582 14.7917ZM5.23317 3.85008L4.58317 11.6834C4.5415 12.1667 4.69984 12.6251 5.02484 12.9834C5.34984 13.3417 5.79983 13.5334 6.28317 13.5334H15.1582C16.0248 13.5334 16.8082 12.8001 16.8748 11.9334L17.3248 5.68342C17.3582 5.19175 17.1998 4.72509 16.8748 4.38342C16.5498 4.03342 16.0998 3.84174 15.6082 3.84174H5.23317V3.85008Z" fill="white"/>
<path d="M13.5417 18.9583C12.625 18.9583 11.875 18.2083 11.875 17.2917C11.875 16.375 12.625 15.625 13.5417 15.625C14.4583 15.625 15.2083 16.375 15.2083 17.2917C15.2083 18.2083 14.4583 18.9583 13.5417 18.9583ZM13.5417 16.875C13.3083 16.875 13.125 17.0583 13.125 17.2917C13.125 17.525 13.3083 17.7083 13.5417 17.7083C13.775 17.7083 13.9583 17.525 13.9583 17.2917C13.9583 17.0583 13.775 16.875 13.5417 16.875Z" fill="white"/>
<path d="M6.87516 18.9583C5.9585 18.9583 5.2085 18.2083 5.2085 17.2917C5.2085 16.375 5.9585 15.625 6.87516 15.625C7.79183 15.625 8.54183 16.375 8.54183 17.2917C8.54183 18.2083 7.79183 18.9583 6.87516 18.9583ZM6.87516 16.875C6.64183 16.875 6.4585 17.0583 6.4585 17.2917C6.4585 17.525 6.64183 17.7083 6.87516 17.7083C7.1085 17.7083 7.29183 17.525 7.29183 17.2917C7.29183 17.0583 7.1085 16.875 6.87516 16.875Z" fill="white"/>
<path d="M17.5 7.29175H7.5C7.15833 7.29175 6.875 7.00841 6.875 6.66675C6.875 6.32508 7.15833 6.04175 7.5 6.04175H17.5C17.8417 6.04175 18.125 6.32508 18.125 6.66675C18.125 7.00841 17.8417 7.29175 17.5 7.29175Z" fill="white"/>
</svg>
