<svg width="20" height="20" viewBox="0 0 20 20" fill="none" xmlns="http://www.w3.org/2000/svg">
<path d="M5.7334 15.7501C5.39173 15.7501 5.1084 15.4668 5.1084 15.1251V13.4001C5.1084 13.0585 5.39173 12.7751 5.7334 12.7751C6.07507 12.7751 6.3584 13.0585 6.3584 13.4001V15.1251C6.3584 15.4751 6.07507 15.7501 5.7334 15.7501Z" fill="white"/>
<path d="M10 15.7503C9.65833 15.7503 9.375 15.467 9.375 15.1253V11.667C9.375 11.3253 9.65833 11.042 10 11.042C10.3417 11.042 10.625 11.3253 10.625 11.667V15.1253C10.625 15.4753 10.3417 15.7503 10 15.7503Z" fill="white"/>
<path d="M14.2666 15.7502C13.9249 15.7502 13.6416 15.4669 13.6416 15.1252V9.94189C13.6416 9.60023 13.9249 9.31689 14.2666 9.31689C14.6083 9.31689 14.8916 9.60023 14.8916 9.94189V15.1252C14.8916 15.4752 14.6166 15.7502 14.2666 15.7502Z" fill="white"/>
<path d="M5.73364 10.9837C5.45031 10.9837 5.20031 10.792 5.12531 10.5087C5.04197 10.1753 5.24197 9.83367 5.58364 9.75034C8.65031 8.98367 11.3503 7.30867 13.4086 4.91701L13.792 4.46701C14.017 4.20867 14.4086 4.17534 14.6753 4.40034C14.9336 4.62534 14.967 5.01701 14.742 5.28367L14.3586 5.73367C12.1336 8.33367 9.2003 10.142 5.88364 10.967C5.83364 10.9837 5.78364 10.9837 5.73364 10.9837Z" fill="white"/>
<path d="M14.2669 7.93358C13.9252 7.93358 13.6419 7.65024 13.6419 7.30858V5.50024H11.8252C11.4835 5.50024 11.2002 5.21691 11.2002 4.87524C11.2002 4.53358 11.4835 4.25024 11.8252 4.25024H14.2669C14.6085 4.25024 14.8919 4.53358 14.8919 4.87524V7.31691C14.8919 7.65858 14.6169 7.93358 14.2669 7.93358Z" fill="white"/>
<path d="M12.5003 18.9587H7.50033C2.97533 18.9587 1.04199 17.0253 1.04199 12.5003V7.50033C1.04199 2.97533 2.97533 1.04199 7.50033 1.04199H12.5003C17.0253 1.04199 18.9587 2.97533 18.9587 7.50033V12.5003C18.9587 17.0253 17.0253 18.9587 12.5003 18.9587ZM7.50033 2.29199C3.65866 2.29199 2.29199 3.65866 2.29199 7.50033V12.5003C2.29199 16.342 3.65866 17.7087 7.50033 17.7087H12.5003C16.342 17.7087 17.7087 16.342 17.7087 12.5003V7.50033C17.7087 3.65866 16.342 2.29199 12.5003 2.29199H7.50033Z" fill="white"/>
</svg>
