<svg width="20" height="20" viewBox="0 0 20 20" fill="none" xmlns="http://www.w3.org/2000/svg">
<path d="M14.8253 18.9503H5.17533C2.89199 18.9503 1.04199 17.092 1.04199 14.8087V8.63367C1.04199 7.50034 1.74199 6.07534 2.64199 5.37534L7.13366 1.87534C8.48366 0.825336 10.642 0.775336 12.042 1.75867L17.192 5.367C18.1837 6.05867 18.9587 7.542 18.9587 8.75034V14.817C18.9587 17.092 17.1087 18.9503 14.8253 18.9503ZM7.90033 2.85867L3.40866 6.35867C2.81699 6.82534 2.29199 7.88367 2.29199 8.63367V14.8087C2.29199 16.4003 3.58366 17.7003 5.17533 17.7003H14.8253C16.417 17.7003 17.7087 16.4087 17.7087 14.817V8.75034C17.7087 7.95034 17.1337 6.842 16.4753 6.392L11.3253 2.78367C10.3753 2.117 8.80866 2.15034 7.90033 2.85867Z" fill="white"/>
<path d="M11.25 15.6252H8.75C7.025 15.6252 5.625 14.2252 5.625 12.5002V10.0002C5.625 8.27524 7.025 6.87524 8.75 6.87524H11.25C12.975 6.87524 14.375 8.27524 14.375 10.0002V12.5002C14.375 14.2252 12.975 15.6252 11.25 15.6252ZM8.75 8.12524C7.71667 8.12524 6.875 8.96691 6.875 10.0002V12.5002C6.875 13.5336 7.71667 14.3752 8.75 14.3752H11.25C12.2833 14.3752 13.125 13.5336 13.125 12.5002V10.0002C13.125 8.96691 12.2833 8.12524 11.25 8.12524H8.75Z" fill="white"/>
<path d="M10 15.6252C9.65833 15.6252 9.375 15.3419 9.375 15.0002V7.50024C9.375 7.15858 9.65833 6.87524 10 6.87524C10.3417 6.87524 10.625 7.15858 10.625 7.50024V15.0002C10.625 15.3419 10.3417 15.6252 10 15.6252Z" fill="white"/>
<path d="M13.75 11.8752H6.25C5.90833 11.8752 5.625 11.5919 5.625 11.2502C5.625 10.9086 5.90833 10.6252 6.25 10.6252H13.75C14.0917 10.6252 14.375 10.9086 14.375 11.2502C14.375 11.5919 14.0917 11.8752 13.75 11.8752Z" fill="white"/>
</svg>
