<svg width="20" height="20" viewBox="0 0 20 20" fill="none" xmlns="http://www.w3.org/2000/svg">
<path d="M8.32467 18.7919C8.283 18.7919 8.24133 18.7919 8.19967 18.7752C5.008 18.1252 2.41634 15.7752 1.44967 12.6585C1.34967 12.3252 1.53301 11.9752 1.85801 11.8752C2.19134 11.7752 2.54134 11.9585 2.64134 12.2835C3.47467 14.9669 5.69967 16.9835 8.44967 17.5419C8.79134 17.6085 9.00801 17.9419 8.933 18.2835C8.87467 18.5835 8.608 18.7919 8.32467 18.7919Z" fill="white"/>
<path d="M18.2918 9.77532C17.9752 9.77532 17.7002 9.53366 17.6668 9.21699C17.2668 5.26699 13.9669 2.29199 10.0002 2.29199C6.02518 2.29199 2.73352 5.26699 2.33352 9.20866C2.30019 9.55033 2.00019 9.80866 1.65019 9.76699C1.30852 9.73366 1.05852 9.42533 1.09185 9.08366C1.55852 4.50033 5.39185 1.04199 10.0002 1.04199C14.6168 1.04199 18.4502 4.50033 18.9085 9.08366C18.9419 9.42533 18.6918 9.73366 18.3502 9.76699C18.3335 9.77533 18.3085 9.77532 18.2918 9.77532Z" fill="white"/>
<path d="M11.6751 18.7919C11.3834 18.7919 11.1251 18.5919 11.0667 18.2919C11.0001 17.9502 11.2167 17.6252 11.5501 17.5585C14.2834 17.0002 16.5084 15.0002 17.3501 12.3335C17.4501 12.0002 17.8084 11.8169 18.1334 11.9252C18.4667 12.0252 18.6417 12.3835 18.5417 12.7085C17.5584 15.8085 14.9751 18.1335 11.8001 18.7835C11.7584 18.7835 11.7167 18.7919 11.6751 18.7919Z" fill="white"/>
</svg>
