<svg width="20" height="20" viewBox="0 0 20 20" fill="none" xmlns="http://www.w3.org/2000/svg">
<path d="M14.9062 9.08069C16.0688 8.91735 16.9638 7.92069 16.9663 6.71319C16.9663 5.52319 16.0988 4.53652 14.9613 4.34985" stroke="white" stroke-width="1.5" stroke-linecap="round" stroke-linejoin="round"/>
<path d="M16.4404 11.8755C17.5663 12.0438 18.3521 12.438 18.3521 13.2505C18.3521 13.8097 17.9821 14.173 17.3838 14.4013" stroke="white" stroke-width="1.5" stroke-linecap="round" stroke-linejoin="round"/>
<path fill-rule="evenodd" clip-rule="evenodd" d="M9.90529 12.22C7.22695 12.22 4.93945 12.6258 4.93945 14.2466C4.93945 15.8666 7.21279 16.2841 9.90529 16.2841C12.5836 16.2841 14.8703 15.8825 14.8703 14.2608C14.8703 12.6391 12.5978 12.22 9.90529 12.22Z" stroke="white" stroke-width="1.5" stroke-linecap="round" stroke-linejoin="round"/>
<path fill-rule="evenodd" clip-rule="evenodd" d="M9.90518 9.90675C11.6627 9.90675 13.0877 8.48258 13.0877 6.72425C13.0877 4.96675 11.6627 3.54175 9.90518 3.54175C8.14768 3.54175 6.72268 4.96675 6.72268 6.72425C6.71601 8.47591 8.13018 9.90091 9.88185 9.90675H9.90518Z" stroke="white" stroke-width="1.5" stroke-linecap="round" stroke-linejoin="round"/>
<path d="M4.90375 9.08069C3.74042 8.91735 2.84625 7.92069 2.84375 6.71319C2.84375 5.52319 3.71125 4.53652 4.84875 4.34985" stroke="white" stroke-width="1.5" stroke-linecap="round" stroke-linejoin="round"/>
<path d="M3.36967 11.8755C2.24384 12.0438 1.45801 12.438 1.45801 13.2505C1.45801 13.8097 1.82801 14.173 2.42634 14.4013" stroke="white" stroke-width="1.5" stroke-linecap="round" stroke-linejoin="round"/>
</svg>
